<svg xmlns="http://www.w3.org/2000/svg" version="1.1" xmlns:xlink="http://www.w3.org/1999/xlink" xmlns:svgjs="http://svgjs.com/svgjs" width="512" height="512" x="0" y="0" viewBox="0 0 512 512" style="enable-background:new 0 0 512 512" xml:space="preserve" class="">
    <g>
        <g xmlns="http://www.w3.org/2000/svg">
            <g>
                <path d="m482 211h-45c-8.284 0-15-7.716-15-16v-45h-332v45c0 8.284-6.716 16-15 16h-45c-16.569 0-30-14.431-30-31v-135c0-24.853 20.147-45 45-45h91c36.211 0 66.533 25.811 73.506 60h257.494c24.853 0 45 20.147 45 45v75c0 16.569-13.431 31-30 31z" fill="#ffbb33" data-original="#ffbb33" class=""></path>
            </g>
            <path d="m437 211h45c16.569 0 30-14.433 30-31v-75c0-24.853-20.147-45-45-45h-211v90h166v45c0 8.284 6.716 16 15 16z" fill="#ff9933" data-original="#ff9933"></path>
            <g>
                <g>
                    <path d="m437 211h-362c-8.291 0-15-7.709-15-16v-60c0-8.291 6.709-15 15-15h362c8.291 0 15 6.709 15 15v60c0 8.291-6.709 16-15 16z" fill="#fff5f5" data-original="#fff5f5"></path>
                </g>
            </g>
            <g id="Folder_31_">
                <g>
                    <path d="m467 512h-422c-24.853 0-45-20.147-45-45v-287h260l252 287c0 24.853-20.147 45-45 45z" fill="#ffe666" data-original="#ffe666"></path>
                </g>
            </g>
            <path d="m256 211h181c8.291 0 15-7.709 15-16v-60c0-8.291-6.709-15-15-15h-181z" fill="#efe2dd" data-original="#efe2dd"></path>
            <path d="m512 180h-256v332h211c24.853 0 45-20.147 45-45z" fill="#ffbb33" data-original="#ffbb33" class=""></path>
            <g>
                <path d="m346 392c-8.291 0-15 6.709-15 15v15h-150v-15c0-8.291-6.709-15-15-15s-15 6.709-15 15v30c0 8.291 6.709 15 15 15h180c8.291 0 15-6.709 15-15v-30c0-8.291-6.709-15-15-15z" fill="#575f64" data-original="#575f64"></path>
            </g>
            <path d="m361 437v-30c0-8.291-6.709-15-15-15s-15 6.709-15 15v15h-75v30h90c8.291 0 15-6.709 15-15z" fill="#474f54" data-original="#474f54"></path>
            <path d="m206.605 327.605 34.395-34.394v83.789c0 8.291 6.709 15 15 15s15-6.709 15-15v-83.789l34.395 34.395c5.859 5.859 15.351 5.86 21.211 0 5.859-5.859 5.859-15.352 0-21.211l-59.982-59.982c-5.856-5.871-15.428-5.835-21.248 0l-59.982 59.982c-5.859 5.859-5.859 15.352 0 21.211s15.352 5.859 21.211-.001z" fill="#575f64" data-original="#575f64"></path>
            <path d="m271 377v-83.789l34.395 34.395c5.859 5.859 15.352 5.859 21.211 0s5.859-15.352 0-21.211l-59.982-59.982c-2.924-2.933-6.775-4.391-10.624-4.389v149.976c8.291 0 15-6.709 15-15z" fill="#474f54" data-original="#474f54"></path>
        </g>
    </g>
</svg>